<svg width="134" height="32" viewBox="0 0 134 32" fill="none" xmlns="http://www.w3.org/2000/svg">
<path d="M30.7868 15.623C30.7868 13.9058 30.4101 12.2723 29.7613 10.7853L37.7562 0.481689H27.7102L24.8848 5.34032C23.1267 4.31415 21.0757 3.70682 18.8781 3.70682C16.6806 3.70682 14.6295 4.2932 12.8714 5.34032L10.046 0.481689H0L7.99495 10.7853C7.34614 12.2513 6.96942 13.8848 6.96942 15.623C6.96942 17.3403 7.34614 18.9738 7.99495 20.4607L0 30.7644H10.046L12.8714 25.9058C14.6295 26.9319 16.6806 27.5393 18.8781 27.5393C21.0757 27.5393 23.1267 26.9529 24.8848 25.9058L27.7102 30.7644H37.7562L29.7613 20.4607C30.431 18.9738 30.7868 17.3403 30.7868 15.623ZM17.8945 22.5131L13.9807 24L17.8945 17.2565L13.1645 19.5812C12.3901 18.4503 11.9296 17.089 11.9296 15.6021C11.9296 11.7487 15.0481 8.62828 18.8991 8.62828C19.2339 8.62828 19.5688 8.64922 19.9037 8.69111L23.8174 7.2042L19.9037 13.9477L24.6336 11.623C25.408 12.7539 25.8685 14.1152 25.8685 15.6021C25.8685 19.4555 22.75 22.5759 18.8991 22.5759C18.5642 22.5759 18.2293 22.555 17.8945 22.5131Z" fill="url(#paint0_linear_522_2597)"/>
<path d="M43.8257 28.8795C43.8257 29.0261 43.8048 29.1727 43.742 29.2983C43.6792 29.424 43.6164 29.5287 43.5327 29.6124C43.449 29.6962 43.3443 29.759 43.2188 29.8219C43.0932 29.8638 42.9676 29.8847 42.842 29.8847C42.7165 29.8847 42.5909 29.8638 42.4653 29.8219C42.3397 29.78 42.2351 29.7172 42.1514 29.6334C42.0677 29.5496 41.9839 29.4449 41.9421 29.3193C41.8793 29.1936 41.8584 29.047 41.8584 28.9004V26.2617H41.1468V28.9004C41.1468 29.2355 41.2096 29.5287 41.3561 29.78C41.5026 30.0313 41.6909 30.2198 41.963 30.3664C42.2142 30.513 42.5072 30.5758 42.842 30.5758C43.1769 30.5758 43.4699 30.513 43.7211 30.3664C43.9722 30.2198 44.1815 30.0313 44.328 29.78C44.4745 29.5287 44.5373 29.2355 44.5373 28.9004V26.2407H43.8257V28.8795Z" fill="#08345D"/>
<path d="M47.6348 27.4346C47.4255 27.288 47.1535 27.2252 46.8604 27.2252C46.5674 27.2252 46.3163 27.288 46.107 27.4346C46.0651 27.4765 46.0233 27.5184 45.9814 27.5394V27.2881H45.3535V31.8535H46.0651V30.2828C46.0861 30.3038 46.0861 30.3038 46.107 30.3247C46.3163 30.4713 46.5674 30.5551 46.8814 30.5551C47.1744 30.5551 47.4255 30.4713 47.6348 30.3247C47.8441 30.1781 48.0115 29.9896 48.1371 29.7174C48.2627 29.4661 48.3255 29.1729 48.3255 28.8587C48.3255 28.5446 48.2627 28.2514 48.1371 28.0001C48.0115 27.7488 47.865 27.5812 47.6348 27.4346ZM47.4883 29.4242C47.4255 29.5917 47.3418 29.6964 47.2162 29.8011C47.0907 29.8849 46.9442 29.9477 46.7558 29.9477C46.5674 29.9477 46.4209 29.9058 46.2954 29.8221C46.1698 29.7383 46.0861 29.6127 46.0442 29.4661C45.9814 29.3195 45.9605 29.131 45.9605 28.9216C45.9605 28.7121 45.9814 28.5236 46.0442 28.3771C46.107 28.2305 46.1907 28.1048 46.2954 28.021C46.4 27.9373 46.5465 27.8954 46.7349 27.8954C46.9232 27.8954 47.0907 27.9373 47.1953 28.042C47.3209 28.1257 47.4046 28.2514 47.4674 28.4189C47.5302 28.5865 47.5511 28.754 47.5511 28.9425C47.572 29.0891 47.5511 29.2566 47.4883 29.4242Z" fill="#08345D"/>
<path d="M51.1509 27.5604C51.1091 27.5185 51.0672 27.4766 51.0253 27.4556C50.8161 27.309 50.5649 27.2462 50.2719 27.2462C49.9789 27.2462 49.7068 27.309 49.4975 27.4556C49.2673 27.6022 49.0999 27.7907 48.9952 28.042C48.8906 28.2933 48.8069 28.5865 48.8069 28.9007C48.8069 29.2148 48.8696 29.508 48.9952 29.7593C49.1208 30.0106 49.2882 30.22 49.4975 30.3666C49.7068 30.5132 49.958 30.597 50.251 30.597C50.5649 30.597 50.8161 30.5132 51.0253 30.3666C51.0463 30.3666 51.0463 30.3457 51.0672 30.3248V30.6389C51.0672 30.7855 51.0463 30.9111 50.9835 31.0158C50.9207 31.1206 50.837 31.1834 50.7114 31.2462C50.6068 31.2881 50.4603 31.33 50.3138 31.33C50.1882 31.33 50.0626 31.309 49.958 31.2462C49.8533 31.1834 49.7696 31.0996 49.7068 30.9949L49.058 31.309C49.1417 31.4556 49.2464 31.5813 49.3719 31.686C49.4975 31.7907 49.644 31.8745 49.8115 31.9164C49.9789 31.9792 50.1463 32.0001 50.3138 32.0001C50.544 32.0001 50.7742 31.9583 50.9626 31.8954C51.1509 31.8326 51.3184 31.7279 51.4649 31.6022C51.5904 31.4766 51.6951 31.309 51.7369 31.0996C51.7579 31.0368 51.7579 30.953 51.7788 30.8902C51.7788 30.8064 51.7788 30.7436 51.7788 30.6598V27.3509H51.1509V27.5604ZM50.8161 29.8012C50.6905 29.885 50.544 29.9268 50.3556 29.9268C50.1673 29.9268 50.0207 29.885 49.8952 29.7802C49.7696 29.6965 49.6859 29.5708 49.6231 29.4033C49.5603 29.2357 49.5394 29.0682 49.5394 28.8797C49.5394 28.6912 49.5603 28.5237 49.6231 28.3562C49.6859 28.1886 49.7696 28.0839 49.8952 27.9792C50.0207 27.8954 50.1673 27.8326 50.3556 27.8326C50.544 27.8326 50.6905 27.8745 50.7951 27.9583C50.8998 28.042 50.9835 28.1677 51.0463 28.3143C51.1091 28.4609 51.13 28.6494 51.13 28.8588C51.13 29.0682 51.1091 29.2357 51.0463 29.4033C51.0044 29.5918 50.9207 29.7174 50.8161 29.8012Z" fill="#08345D"/>
<path d="M53.788 27.3507C53.6834 27.3716 53.5996 27.4135 53.5369 27.4763C53.4531 27.5391 53.3694 27.602 53.3066 27.6857C53.2648 27.7276 53.2438 27.7905 53.2229 27.8323V27.3088H52.595V30.4711H53.3066V28.8585C53.3066 28.7329 53.3276 28.6282 53.3485 28.5234C53.3694 28.4187 53.4322 28.335 53.495 28.2512C53.5578 28.1674 53.6415 28.1046 53.7252 28.0418C53.8299 27.9789 53.9345 27.958 54.0601 27.9371C54.1857 27.9371 54.2903 27.9371 54.374 27.958V27.3088C54.2903 27.2878 54.1857 27.2878 54.081 27.2878C53.9764 27.3088 53.8717 27.3297 53.788 27.3507Z" fill="#08345D"/>
<path d="M57.325 27.8116C57.2204 27.6021 57.053 27.4555 56.8437 27.3508C56.6344 27.2671 56.3832 27.2042 56.1111 27.2042C55.7344 27.2042 55.4414 27.288 55.2321 27.4555C55.0228 27.6231 54.8554 27.8325 54.7926 28.1048L55.4414 28.3142C55.5042 28.1466 55.5879 28.0419 55.7135 27.9791C55.8391 27.9163 55.9856 27.8744 56.1321 27.8744C56.3623 27.8744 56.5297 27.9163 56.6344 28.021C56.7181 28.1048 56.7599 28.2304 56.7809 28.3979C56.6553 28.4189 56.5297 28.4398 56.4041 28.4608C56.1949 28.4817 56.0274 28.5236 55.8391 28.5445C55.6716 28.5864 55.5251 28.6074 55.3995 28.6493C55.2321 28.7121 55.0856 28.7749 54.981 28.8587C54.8763 28.9424 54.7926 29.0472 54.7507 29.1728C54.7089 29.2985 54.667 29.4241 54.667 29.5917C54.667 29.7592 54.7089 29.9267 54.7926 30.0733C54.8763 30.2199 55.0019 30.3246 55.1484 30.4294C55.3158 30.5131 55.5042 30.555 55.7344 30.555C56.0274 30.555 56.2576 30.4922 56.446 30.3875C56.5925 30.3037 56.7181 30.178 56.8437 30.0314V30.4503H57.4715V28.5027C57.4715 28.3561 57.4715 28.2304 57.4506 28.1257C57.4297 28.021 57.3878 27.9163 57.325 27.8116ZM56.6762 29.466C56.6553 29.5288 56.6134 29.6126 56.5297 29.6964C56.4669 29.7801 56.3623 29.843 56.2576 29.9058C56.153 29.9686 56.0065 29.9896 55.8391 29.9896C55.7344 29.9896 55.6298 29.9686 55.567 29.9267C55.4833 29.8849 55.4414 29.843 55.3995 29.7801C55.3577 29.7173 55.3368 29.6545 55.3368 29.5707C55.3368 29.5079 55.3577 29.4451 55.3786 29.3822C55.3995 29.3404 55.4623 29.2775 55.5042 29.2566C55.567 29.2147 55.6298 29.1728 55.7135 29.1519C55.7972 29.1309 55.9018 29.089 56.0065 29.0681C56.1111 29.0472 56.2367 29.0262 56.4041 29.0053C56.5088 28.9843 56.6134 28.9634 56.739 28.9424C56.739 29.0053 56.739 29.0472 56.739 29.1309C56.739 29.2775 56.7181 29.3822 56.6762 29.466Z" fill="#08345D"/>
<path d="M60.297 27.4764C60.2761 27.4764 60.2761 27.4555 60.2761 27.4555C60.0668 27.3089 59.8156 27.2461 59.5226 27.2461C59.2296 27.2461 58.9575 27.3089 58.7482 27.4555C58.518 27.6021 58.3506 27.7906 58.2459 28.0419C58.1203 28.2932 58.0576 28.5864 58.0576 28.9005C58.0576 29.2147 58.1203 29.5078 58.2459 29.7592C58.3715 30.0105 58.5389 30.2199 58.7482 30.3665C58.9575 30.5131 59.2087 30.5969 59.5017 30.5969C59.8156 30.5969 60.0668 30.5131 60.2761 30.3665C60.3179 30.3246 60.3598 30.2827 60.4016 30.2408V30.4921H61.0295V26.2827H60.3179V27.4764H60.297ZM60.297 29.445C60.2342 29.5916 60.1505 29.7173 60.0458 29.801C59.9203 29.8848 59.7737 29.9267 59.5854 29.9267C59.397 29.9267 59.2505 29.8848 59.1249 29.7801C58.9994 29.6963 58.9157 29.5707 58.8529 29.4031C58.7901 29.2356 58.7691 29.0681 58.7691 28.8796C58.7691 28.6911 58.7901 28.5236 58.8529 28.356C58.9157 28.1885 58.9994 28.0838 59.1249 27.9791C59.2505 27.8953 59.397 27.8325 59.5854 27.8325C59.7737 27.8325 59.9203 27.8743 60.0249 27.9581C60.1295 28.0419 60.2133 28.1675 60.2761 28.3141C60.3388 28.4607 60.3598 28.6492 60.3598 28.8586C60.3807 29.089 60.3598 29.2775 60.297 29.445Z" fill="#08345D"/>
<path d="M64.0642 27.4556C63.834 27.309 63.5619 27.2252 63.2271 27.2252C62.9131 27.2252 62.641 27.288 62.4108 27.4346C62.1806 27.5812 61.9922 27.7697 61.8667 28.021C61.7411 28.2723 61.6574 28.5865 61.6574 28.9216C61.6574 29.2357 61.7202 29.5289 61.8667 29.7802C61.9922 30.0315 62.2015 30.22 62.4318 30.3666C62.6829 30.5132 62.955 30.576 63.2689 30.576C63.5829 30.576 63.8549 30.4922 64.1061 30.3456C64.3572 30.1781 64.5456 29.9687 64.6712 29.6755L63.9805 29.4661C63.9177 29.6127 63.8131 29.7174 63.6875 29.8011C63.5619 29.8849 63.4154 29.9268 63.248 29.9268C62.9759 29.9268 62.7666 29.843 62.641 29.6545C62.5364 29.5079 62.4736 29.3404 62.4318 29.11H64.0224H64.3782H64.734C64.7549 28.7331 64.713 28.398 64.6084 28.1257C64.4619 27.8116 64.2945 27.6022 64.0642 27.4556ZM63.248 27.8325C63.4991 27.8325 63.6875 27.9163 63.8131 28.0629C63.8968 28.1676 63.9596 28.3352 63.9805 28.5446H62.4318C62.4736 28.3561 62.5155 28.2095 62.6201 28.1048C62.7457 27.9373 62.9759 27.8325 63.248 27.8325Z" fill="#08345D"/>
<path d="M67.8106 29.5706L66.9106 27.3088H66.1781L67.4548 30.4502L66.9315 31.8743H67.6013L69.3593 27.3088H68.6687L67.8106 29.5706Z" fill="#08345D"/>
<path d="M71.9127 27.4346C71.6825 27.288 71.3895 27.2252 71.0755 27.2252C70.7616 27.2252 70.4895 27.288 70.2593 27.4346C70.0291 27.5812 69.8407 27.7697 69.7151 28.021C69.5895 28.2723 69.5058 28.5655 69.5058 28.9006C69.5058 29.2357 69.5686 29.5079 69.6942 29.7593C69.8198 30.0106 70.0081 30.199 70.2384 30.3456C70.4686 30.4922 70.7407 30.5551 71.0755 30.5551C71.3895 30.5551 71.6615 30.4922 71.9127 30.3456C72.1429 30.199 72.3313 30.0106 72.4568 29.7593C72.5824 29.5079 72.6452 29.2147 72.6452 28.9006C72.6452 28.5655 72.5824 28.2933 72.4568 28.042C72.3313 27.7697 72.1429 27.5812 71.9127 27.4346ZM71.7034 29.6127C71.5569 29.8011 71.3476 29.8849 71.0755 29.8849C70.8034 29.8849 70.5941 29.8011 70.4686 29.6127C70.3221 29.4242 70.2593 29.1938 70.2593 28.8797C70.2593 28.6702 70.2802 28.5027 70.343 28.3561C70.4058 28.2095 70.4895 28.0839 70.6151 28.0001C70.7406 27.9163 70.8872 27.8744 71.0755 27.8744C71.3476 27.8744 71.5569 27.9582 71.7034 28.1467C71.8499 28.3352 71.9127 28.5655 71.9127 28.8797C71.9127 29.1938 71.8499 29.4242 71.7034 29.6127Z" fill="#08345D"/>
<path d="M75.4288 28.9423C75.4288 29.1308 75.4079 29.2984 75.366 29.424C75.3241 29.5497 75.2613 29.6544 75.1986 29.7172C75.1358 29.78 75.0521 29.8429 74.9683 29.8638C74.8846 29.8848 74.8009 29.9057 74.6963 29.9057C74.5288 29.9057 74.4033 29.8638 74.2986 29.801C74.194 29.7382 74.1312 29.6334 74.0684 29.5287C74.0265 29.424 73.9847 29.2984 73.9637 29.1727C73.9428 29.0471 73.9428 28.9423 73.9428 28.8376V27.3088H73.2312V29.068C73.2312 29.1518 73.2312 29.2355 73.2521 29.3612C73.2731 29.4869 73.294 29.6125 73.3359 29.7591C73.3777 29.9057 73.4405 30.0314 73.5452 30.1361C73.6289 30.2617 73.7544 30.3664 73.901 30.4293C74.0475 30.513 74.2567 30.5549 74.487 30.5549C74.78 30.5549 75.0311 30.4921 75.2404 30.3664C75.3451 30.3036 75.4497 30.2198 75.5334 30.1151V30.4711H76.1613V27.3088H75.4497V28.9423H75.4288Z" fill="#08345D"/>
<path d="M78.1705 27.3507C78.0659 27.3716 77.9821 27.4135 77.9194 27.4763C77.8356 27.5391 77.7519 27.602 77.6891 27.6857C77.6473 27.7276 77.6263 27.7905 77.6054 27.8323V27.3088H76.9775V30.4711H77.6891V28.8585C77.6891 28.7329 77.7101 28.6282 77.731 28.5234C77.7519 28.4187 77.8147 28.335 77.8775 28.2512C77.9403 28.1674 78.024 28.1046 78.1077 28.0418C78.2124 27.9789 78.317 27.958 78.4426 27.9371C78.5682 27.9371 78.6728 27.9371 78.7565 27.958V27.3088C78.6728 27.2878 78.5682 27.2878 78.4635 27.2878C78.3589 27.3088 78.2542 27.3297 78.1705 27.3507Z" fill="#08345D"/>
<path d="M81.3936 26.4293H80.682V27.3089H80.1169V27.8534H80.682V29.1728C80.682 29.3613 80.682 29.5079 80.682 29.6545C80.682 29.801 80.7239 29.9267 80.7866 30.0733C80.8704 30.2199 80.9959 30.3246 81.1424 30.4084C81.3099 30.4712 81.4773 30.5131 81.6866 30.5131C81.8959 30.5131 82.0843 30.4921 82.2935 30.4712V29.8848C82.1052 29.9058 81.9168 29.9267 81.7703 29.9058C81.6238 29.8848 81.4982 29.822 81.4355 29.7173C81.3936 29.6544 81.3727 29.5707 81.3727 29.4869C81.3727 29.4031 81.3727 29.2775 81.3727 29.1518V27.8743H82.2935V27.3298H81.3936V26.4293Z" fill="#08345D"/>
<path d="M84.219 27.3507C84.1144 27.3716 84.0307 27.4135 83.9679 27.4763C83.8842 27.5391 83.8005 27.602 83.7377 27.6857C83.6958 27.7276 83.6749 27.7905 83.654 27.8323V27.3088H83.0261V30.4711H83.7377V28.8585C83.7377 28.7329 83.7586 28.6282 83.7795 28.5234C83.8005 28.4187 83.8632 28.335 83.926 28.2512C83.9888 28.1674 84.0725 28.1046 84.1563 28.0418C84.2609 27.9789 84.3655 27.958 84.4911 27.9371C84.6167 27.9371 84.7213 27.9371 84.8051 27.958V27.3088C84.7213 27.2878 84.6167 27.2878 84.5121 27.2878C84.4074 27.3088 84.3028 27.3297 84.219 27.3507Z" fill="#08345D"/>
<path d="M87.7561 27.8116C87.6514 27.6021 87.484 27.4555 87.2747 27.3508C87.0654 27.2671 86.8143 27.2042 86.5422 27.2042C86.1655 27.2042 85.8724 27.288 85.6632 27.4555C85.4539 27.6231 85.2864 27.8325 85.2236 28.1048L85.8724 28.3142C85.9352 28.1466 86.019 28.0419 86.1445 27.9791C86.2701 27.9163 86.4166 27.8744 86.5631 27.8744C86.7933 27.8744 86.9608 27.9163 87.0654 28.021C87.1491 28.1048 87.191 28.2304 87.2119 28.3979C87.0863 28.4189 86.9608 28.4398 86.8352 28.4608C86.6259 28.4817 86.4585 28.5236 86.2701 28.5445C86.1027 28.5864 85.9562 28.6074 85.8306 28.6493C85.6632 28.7121 85.5167 28.7749 85.412 28.8587C85.3074 28.9424 85.2236 29.0472 85.1818 29.1728C85.1399 29.2985 85.0981 29.4241 85.0981 29.5917C85.0981 29.7592 85.1399 29.9267 85.2236 30.0733C85.3074 30.2199 85.4329 30.3246 85.5794 30.4294C85.7469 30.5131 85.9352 30.555 86.1655 30.555C86.4585 30.555 86.6887 30.4922 86.877 30.3875C87.0236 30.3037 87.1491 30.178 87.2747 30.0314V30.4503H87.9026V28.5027C87.9026 28.3561 87.9026 28.2304 87.8816 28.1257C87.8607 28.021 87.8189 27.9163 87.7561 27.8116ZM87.1073 29.466C87.0863 29.5288 87.0445 29.6126 86.9608 29.6964C86.898 29.7801 86.7933 29.843 86.6887 29.9058C86.584 29.9686 86.4375 29.9896 86.2701 29.9896C86.1655 29.9896 86.0608 29.9686 85.998 29.9267C85.9143 29.8849 85.8724 29.843 85.8306 29.7801C85.7887 29.7173 85.7678 29.6545 85.7678 29.5707C85.7678 29.5079 85.7887 29.4451 85.8097 29.3822C85.8306 29.3404 85.8934 29.2775 85.9352 29.2566C85.998 29.2147 86.0608 29.1728 86.1445 29.1519C86.2282 29.1309 86.3329 29.089 86.4375 29.0681C86.5422 29.0472 86.6678 29.0262 86.8352 29.0053C86.9398 28.9843 87.0445 28.9634 87.1701 28.9424C87.1701 29.0053 87.1701 29.0472 87.1701 29.1309C87.1701 29.2775 87.1491 29.3822 87.1073 29.466Z" fill="#08345D"/>
<path d="M90.728 27.4764C90.7071 27.4764 90.7071 27.4555 90.7071 27.4555C90.4978 27.3089 90.2467 27.2461 89.9536 27.2461C89.6606 27.2461 89.3886 27.3089 89.1793 27.4555C88.949 27.6021 88.7816 27.7906 88.677 28.0419C88.5723 28.2932 88.4886 28.5864 88.4886 28.9005C88.4886 29.2147 88.5514 29.5078 88.677 29.7592C88.8025 30.0105 88.97 30.2199 89.1793 30.3665C89.3886 30.5131 89.6397 30.5969 89.9327 30.5969C90.2467 30.5969 90.4978 30.5131 90.7071 30.3665C90.749 30.3246 90.7908 30.2827 90.8327 30.2408V30.4921H91.4605V26.2827H90.749V27.4764H90.728ZM90.728 29.445C90.6652 29.5916 90.5815 29.7173 90.4769 29.801C90.3513 29.8848 90.2048 29.9267 90.0164 29.9267C89.8281 29.9267 89.6816 29.8848 89.556 29.7801C89.4304 29.6963 89.3467 29.5707 89.2839 29.4031C89.2211 29.2356 89.2002 29.0681 89.2002 28.8796C89.2002 28.6911 89.2211 28.5236 89.2839 28.356C89.3467 28.1885 89.4304 28.0838 89.556 27.9791C89.6816 27.8953 89.8281 27.8325 90.0164 27.8325C90.2048 27.8325 90.3513 27.8743 90.4559 27.9581C90.5606 28.0419 90.6443 28.1675 90.7071 28.3141C90.7699 28.4607 90.7908 28.6492 90.7908 28.8586C90.8117 29.089 90.7908 29.2775 90.728 29.445Z" fill="#08345D"/>
<path d="M93.0302 27.3088H92.3186V30.4711H93.0302V27.3088Z" fill="#08345D"/>
<path d="M93.0302 26.178H92.3186V26.8272H93.0302V26.178Z" fill="#08345D"/>
<path d="M96.6928 28.021C96.651 27.8744 96.5882 27.7488 96.4835 27.6441C96.3998 27.5184 96.2743 27.4137 96.1277 27.3509C95.9812 27.2671 95.7719 27.2252 95.5417 27.2252C95.2487 27.2252 94.9976 27.288 94.7883 27.4137C94.6836 27.4765 94.579 27.5603 94.4953 27.665V27.309H93.8674V30.4713H94.579V28.8378C94.579 28.6493 94.5999 28.4818 94.6418 28.3561C94.6836 28.2305 94.7464 28.1257 94.8092 28.0629C94.872 28.0001 94.9557 27.9373 95.0394 27.9163C95.1231 27.8954 95.2069 27.8744 95.3115 27.8744C95.4789 27.8744 95.6045 27.9163 95.7092 27.9791C95.8138 28.042 95.8766 28.1467 95.9394 28.2514C95.9812 28.3561 96.0231 28.4818 96.044 28.6074C96.065 28.7331 96.0649 28.8378 96.0649 28.9425V30.4713H96.7765V28.7121C96.7765 28.6284 96.7766 28.5446 96.7556 28.4189C96.7766 28.2933 96.7347 28.1676 96.6928 28.021Z" fill="#08345D"/>
<path d="M99.7276 27.5604C99.6857 27.5185 99.6438 27.4766 99.602 27.4556C99.3927 27.309 99.1416 27.2462 98.8485 27.2462C98.5555 27.2462 98.2835 27.309 98.0742 27.4556C97.8439 27.6022 97.6765 27.7907 97.5719 28.042C97.4463 28.2933 97.3835 28.5865 97.3835 28.9007C97.3835 29.2148 97.4463 29.508 97.5719 29.7593C97.6974 30.0106 97.8649 30.22 98.0742 30.3666C98.2835 30.5132 98.5346 30.597 98.8276 30.597C99.1415 30.597 99.3927 30.5132 99.602 30.3666C99.6229 30.3666 99.6229 30.3457 99.6438 30.3248V30.6389C99.6438 30.7855 99.6229 30.9111 99.5601 31.0158C99.4973 31.1206 99.4136 31.1834 99.288 31.2462C99.1834 31.2881 99.0369 31.33 98.8904 31.33C98.7648 31.33 98.6393 31.309 98.5346 31.2462C98.43 31.1834 98.3462 31.0996 98.2835 30.9949L97.6346 31.309C97.7184 31.4556 97.823 31.5813 97.9486 31.686C98.0742 31.7907 98.2207 31.8745 98.3881 31.9164C98.5555 31.9792 98.723 32.0001 98.8904 32.0001C99.1206 32.0001 99.3508 31.9583 99.5392 31.8954C99.7276 31.8326 99.895 31.7279 100.041 31.6022C100.167 31.4766 100.272 31.309 100.314 31.0996C100.335 31.0368 100.335 30.953 100.355 30.8902C100.355 30.8064 100.355 30.7436 100.355 30.6598V27.3509H99.7276V27.5604ZM99.3927 29.8012C99.2671 29.885 99.1206 29.9268 98.9323 29.9268C98.7439 29.9268 98.5974 29.885 98.4718 29.7802C98.3462 29.6965 98.2625 29.5708 98.1997 29.4033C98.1369 29.2357 98.116 29.0682 98.116 28.8797C98.116 28.6912 98.1369 28.5237 98.1997 28.3562C98.2625 28.1886 98.3462 28.0839 98.4718 27.9792C98.5974 27.8954 98.7439 27.8326 98.9323 27.8326C99.1206 27.8326 99.2671 27.8745 99.3718 27.9583C99.4764 28.042 99.5601 28.1677 99.6229 28.3143C99.6857 28.4609 99.7066 28.6494 99.7066 28.8588C99.7066 29.0682 99.6857 29.2357 99.6229 29.4033C99.602 29.5918 99.5183 29.7174 99.3927 29.8012Z" fill="#08345D"/>
<path d="M104.583 27.4556C104.353 27.309 104.081 27.2252 103.746 27.2252C103.432 27.2252 103.16 27.288 102.93 27.4346C102.7 27.5812 102.511 27.7697 102.386 28.021C102.26 28.2723 102.176 28.5865 102.176 28.9216C102.176 29.2357 102.239 29.5289 102.386 29.7802C102.511 30.0315 102.72 30.22 102.951 30.3666C103.202 30.5132 103.474 30.576 103.788 30.576C104.102 30.576 104.374 30.4922 104.625 30.3456C104.876 30.1781 105.065 29.9687 105.19 29.6755L104.499 29.4661C104.437 29.6127 104.332 29.7174 104.206 29.8011C104.081 29.8849 103.934 29.9268 103.767 29.9268C103.495 29.9268 103.286 29.843 103.16 29.6545C103.055 29.5079 102.993 29.3404 102.951 29.11H104.541H104.897H105.253C105.274 28.7331 105.232 28.398 105.127 28.1257C104.981 27.8116 104.813 27.6022 104.583 27.4556ZM103.767 27.8325C104.018 27.8325 104.206 27.9163 104.332 28.0629C104.416 28.1676 104.478 28.3352 104.499 28.5446H102.951C102.993 28.3561 103.034 28.2095 103.139 28.1048C103.265 27.9373 103.474 27.8325 103.767 27.8325Z" fill="#08345D"/>
<path d="M108.497 27.3088H107.66L106.969 28.3141L106.257 27.3088H105.42L106.55 28.8795L105.399 30.4711H106.237L106.969 29.424L107.702 30.4711H108.518L107.367 28.8795L108.497 27.3088Z" fill="#08345D"/>
<path d="M111.26 27.4346C111.05 27.288 110.778 27.2252 110.485 27.2252C110.192 27.2252 109.941 27.288 109.732 27.4346C109.69 27.4765 109.648 27.5184 109.606 27.5394V27.2881H108.978V31.8535H109.69V30.2828C109.711 30.3038 109.711 30.3038 109.732 30.3247C109.941 30.4713 110.192 30.5551 110.506 30.5551C110.799 30.5551 111.05 30.4713 111.26 30.3247C111.469 30.1781 111.636 29.9896 111.762 29.7174C111.887 29.4661 111.95 29.1729 111.95 28.8587C111.95 28.5446 111.887 28.2514 111.762 28.0001C111.636 27.7488 111.49 27.5812 111.26 27.4346ZM111.134 29.4242C111.071 29.5917 110.987 29.6964 110.862 29.8011C110.736 29.8849 110.59 29.9477 110.401 29.9477C110.213 29.9477 110.067 29.9058 109.941 29.8221C109.815 29.7383 109.732 29.6127 109.69 29.4661C109.627 29.3195 109.606 29.131 109.606 28.9216C109.606 28.7121 109.627 28.5236 109.69 28.3771C109.753 28.2305 109.836 28.1048 109.941 28.021C110.046 27.9373 110.192 27.8954 110.381 27.8954C110.569 27.8954 110.736 27.9373 110.841 28.042C110.967 28.1257 111.05 28.2514 111.113 28.4189C111.176 28.5865 111.197 28.754 111.197 28.9425C111.218 29.0891 111.176 29.2566 111.134 29.4242Z" fill="#08345D"/>
<path d="M114.838 27.4556C114.608 27.309 114.336 27.2252 114.001 27.2252C113.687 27.2252 113.415 27.288 113.185 27.4346C112.955 27.5812 112.766 27.7697 112.641 28.021C112.515 28.2723 112.432 28.5865 112.432 28.9216C112.432 29.2357 112.494 29.5289 112.641 29.7802C112.766 30.0315 112.976 30.22 113.206 30.3666C113.457 30.5132 113.729 30.576 114.043 30.576C114.357 30.576 114.629 30.4922 114.88 30.3456C115.131 30.1781 115.32 29.9687 115.445 29.6755L114.755 29.4661C114.692 29.6127 114.587 29.7174 114.462 29.8011C114.336 29.8849 114.19 29.9268 114.022 29.9268C113.75 29.9268 113.541 29.843 113.415 29.6545C113.311 29.5079 113.248 29.3404 113.206 29.11H114.797H115.152H115.508C115.529 28.7331 115.487 28.398 115.383 28.1257C115.236 27.8116 115.069 27.6022 114.838 27.4556ZM114.022 27.8325C114.273 27.8325 114.462 27.9163 114.587 28.0629C114.671 28.1676 114.734 28.3352 114.755 28.5446H113.206C113.248 28.3561 113.29 28.2095 113.394 28.1048C113.52 27.9373 113.75 27.8325 114.022 27.8325Z" fill="#08345D"/>
<path d="M117.329 27.3507C117.224 27.3716 117.141 27.4135 117.078 27.4763C116.994 27.5391 116.91 27.602 116.848 27.6857C116.806 27.7276 116.785 27.7905 116.764 27.8323V27.3088H116.136V30.4711H116.848V28.8585C116.848 28.7329 116.869 28.6282 116.889 28.5234C116.91 28.4187 116.973 28.335 117.036 28.2512C117.099 28.1674 117.183 28.1046 117.266 28.0418C117.371 27.9789 117.476 27.958 117.601 27.9371C117.727 27.9371 117.831 27.9371 117.915 27.958V27.3088C117.831 27.2878 117.727 27.2878 117.622 27.2878C117.517 27.3088 117.413 27.3297 117.329 27.3507Z" fill="#08345D"/>
<path d="M119.234 27.3088H118.522V30.4711H119.234V27.3088Z" fill="#08345D"/>
<path d="M119.234 26.178H118.522V26.8272H119.234V26.178Z" fill="#08345D"/>
<path d="M122.331 27.4556C122.101 27.309 121.829 27.2252 121.494 27.2252C121.18 27.2252 120.908 27.288 120.678 27.4346C120.447 27.5812 120.259 27.7697 120.134 28.021C120.008 28.2723 119.924 28.5865 119.924 28.9216C119.924 29.2357 119.987 29.5289 120.134 29.7802C120.259 30.0315 120.468 30.22 120.699 30.3666C120.95 30.5132 121.222 30.576 121.536 30.576C121.85 30.576 122.122 30.4922 122.373 30.3456C122.624 30.1781 122.812 29.9687 122.938 29.6755L122.247 29.4661C122.185 29.6127 122.08 29.7174 121.954 29.8011C121.829 29.8849 121.682 29.9268 121.515 29.9268C121.243 29.9268 121.033 29.843 120.908 29.6545C120.803 29.5079 120.74 29.3404 120.699 29.11H122.289H122.645H123.001C123.022 28.7331 122.98 28.398 122.875 28.1257C122.75 27.8116 122.561 27.6022 122.331 27.4556ZM121.536 27.8325C121.787 27.8325 121.975 27.9163 122.101 28.0629C122.185 28.1676 122.247 28.3352 122.268 28.5446H120.72C120.761 28.3561 120.803 28.2095 120.908 28.1048C121.033 27.9373 121.243 27.8325 121.536 27.8325Z" fill="#08345D"/>
<path d="M126.349 28.021C126.308 27.8744 126.245 27.7488 126.14 27.6441C126.056 27.5184 125.931 27.4137 125.784 27.3509C125.638 27.2671 125.429 27.2252 125.198 27.2252C124.905 27.2252 124.654 27.288 124.445 27.4137C124.34 27.4765 124.236 27.5603 124.152 27.665V27.309H123.524V30.4713H124.236V28.8378C124.236 28.6493 124.257 28.4818 124.298 28.3561C124.34 28.2305 124.403 28.1257 124.466 28.0629C124.529 28.0001 124.612 27.9373 124.696 27.9163C124.78 27.8954 124.864 27.8744 124.968 27.8744C125.136 27.8744 125.261 27.9163 125.366 27.9791C125.47 28.042 125.533 28.1467 125.596 28.2514C125.638 28.3561 125.68 28.4818 125.701 28.6074C125.722 28.7331 125.722 28.8378 125.722 28.9425V30.4713H126.433V28.7121C126.433 28.6284 126.433 28.5446 126.412 28.4189C126.412 28.2933 126.391 28.1676 126.349 28.021Z" fill="#08345D"/>
<path d="M128.087 28.0211C128.212 27.9373 128.359 27.8954 128.547 27.8954C128.714 27.8954 128.861 27.9373 128.987 28.042C129.112 28.1467 129.196 28.2724 129.259 28.4399L129.97 28.2514C129.887 27.9373 129.74 27.686 129.489 27.5185C129.238 27.33 128.945 27.2462 128.568 27.2462C128.254 27.2462 127.982 27.309 127.731 27.4556C127.501 27.6022 127.312 27.7907 127.187 28.042C127.061 28.2933 126.998 28.5865 126.998 28.9007C126.998 29.2148 127.061 29.508 127.187 29.7593C127.312 30.0106 127.48 30.22 127.71 30.3457C127.94 30.4923 128.212 30.5551 128.547 30.5551C128.903 30.5551 129.196 30.4713 129.447 30.3038C129.698 30.1363 129.866 29.885 129.949 29.5708L129.238 29.4033C129.175 29.5708 129.091 29.6965 128.987 29.7802C128.882 29.864 128.735 29.9059 128.547 29.9059C128.275 29.9059 128.087 29.8221 127.94 29.6336C127.815 29.4452 127.731 29.2148 127.731 28.9007C127.731 28.7122 127.752 28.5446 127.815 28.3771C127.877 28.2305 127.961 28.1049 128.087 28.0211Z" fill="#08345D"/>
<path d="M132.963 29.0891H133.319C133.34 28.7121 133.298 28.3771 133.193 28.1048C133.089 27.8326 132.921 27.6022 132.691 27.4556C132.461 27.309 132.189 27.2252 131.854 27.2252C131.54 27.2252 131.268 27.288 131.038 27.4346C130.807 27.5812 130.619 27.7697 130.493 28.021C130.368 28.2723 130.284 28.5865 130.284 28.9216C130.284 29.2357 130.347 29.5289 130.493 29.7802C130.619 30.0315 130.828 30.22 131.059 30.3666C131.31 30.5132 131.582 30.576 131.896 30.576C132.21 30.576 132.482 30.4922 132.733 30.3456C132.984 30.1781 133.172 29.9687 133.298 29.6755L132.607 29.4661C132.545 29.6127 132.44 29.7174 132.314 29.8011C132.189 29.8849 132.042 29.9268 131.875 29.9268C131.603 29.9268 131.393 29.843 131.268 29.6545C131.163 29.5079 131.1 29.3404 131.059 29.11H132.649H132.963V29.0891ZM131.875 27.8325C132.126 27.8325 132.314 27.9163 132.44 28.0629C132.524 28.1676 132.586 28.3352 132.607 28.5446H131.059C131.1 28.3561 131.142 28.2095 131.247 28.1048C131.372 27.9373 131.582 27.8325 131.875 27.8325Z" fill="#08345D"/>
<path d="M59.7528 0.439819H54.9182L50.5649 7.35081L46.1489 0.439819H41.3561L48.1162 10.7016L41.1468 21.1937H45.9814L50.5649 14.0524L55.1065 21.1937H59.9203L52.9718 10.7016L59.7528 0.439819Z" fill="#08345D"/>
<path d="M72.8126 6.34556C71.6615 5.57069 70.2802 5.19373 68.6477 5.19373C67.1199 5.19373 65.7595 5.54975 64.5665 6.24085C63.3945 6.93195 62.4527 7.91624 61.7829 9.17278C61.1132 10.4293 60.7784 11.9162 60.7784 13.6126C60.7784 15.1623 61.1132 16.5445 61.8039 17.7592C62.4945 18.9738 63.4364 19.9162 64.6502 20.6073C65.8641 21.2984 67.2664 21.6335 68.857 21.6335C70.3639 21.6335 71.7243 21.2356 73.001 20.4607C74.2567 19.6649 75.1776 18.5759 75.7636 17.1518L71.8499 16.0209C71.5569 16.6492 71.1383 17.1309 70.5941 17.466C70.05 17.801 69.3802 17.9686 68.6268 17.9686C67.4129 17.9686 66.492 17.5707 65.8641 16.7749C65.4037 16.1885 65.1107 15.4346 64.9851 14.5131H75.8892C76.0567 12.6283 75.8683 10.9948 75.3032 9.59163C74.78 8.20943 73.9428 7.12043 72.8126 6.34556ZM68.8152 8.60734C69.9663 8.60734 70.7825 8.96336 71.2848 9.65446C71.6197 10.1152 71.829 10.7644 71.9545 11.6021H65.1107C65.2572 10.8901 65.5083 10.2827 65.8851 9.82199C66.492 9.00524 67.4757 8.60734 68.8152 8.60734Z" fill="#08345D"/>
<path d="M93.407 1.36126C91.9001 0.460733 90.1211 0 88.0491 0C85.9771 0 84.1981 0.460733 82.6912 1.36126C81.1843 2.26178 80.0332 3.51833 79.217 5.15183C78.4007 6.78534 78.0031 8.67016 78.0031 10.8063C78.0031 12.9634 78.4007 14.8482 79.217 16.4607C80.0332 18.0942 81.1843 19.3508 82.6912 20.2513C84.1981 21.1518 85.9771 21.6126 88.0491 21.6126C90.1211 21.6126 91.9001 21.1518 93.407 20.2513C94.9139 19.3508 96.065 18.0942 96.8812 16.4607C97.6974 14.8482 98.0951 12.9424 98.0951 10.8063C98.0951 8.64921 97.6974 6.7644 96.8812 5.15183C96.065 3.53927 94.9139 2.26178 93.407 1.36126ZM93.3023 14.5969C92.8628 15.6649 92.214 16.5026 91.335 17.089C90.4559 17.6754 89.3676 17.9686 88.0491 17.9476C86.7305 17.9267 85.6422 17.6335 84.7632 17.0471C83.8842 16.4607 83.2354 15.644 82.7959 14.5759C82.3563 13.5288 82.147 12.2723 82.147 10.8272C82.147 9.3822 82.3563 8.12566 82.7959 7.05759C83.2354 5.98953 83.8842 5.15184 84.7632 4.56545C85.6422 3.97906 86.7305 3.70681 88.0491 3.70681C89.3676 3.72775 90.4559 4.02094 91.335 4.60733C92.214 5.19372 92.8628 6.01047 93.3023 7.07854C93.7418 8.12566 93.9511 9.3822 93.9511 10.8272C93.9511 12.2513 93.7209 13.5079 93.3023 14.5969Z" fill="#08345D"/>
<path d="M115.152 9.34046C114.964 8.64936 114.671 8.00014 114.231 7.35093C113.813 6.72266 113.206 6.1991 112.432 5.78025C111.657 5.3614 110.674 5.15198 109.46 5.15198C107.932 5.15198 106.676 5.48706 105.671 6.13627C105.19 6.45041 104.792 6.80642 104.437 7.20433V5.59177H100.962V21.152H104.939V13.2567C104.939 12.2933 105.044 11.5185 105.253 10.9321C105.462 10.3457 105.734 9.90591 106.09 9.59177C106.425 9.29858 106.781 9.08915 107.178 8.98444C107.555 8.87972 107.932 8.8169 108.267 8.8169C109.104 8.8169 109.753 9.00538 110.213 9.38235C110.674 9.75931 110.987 10.22 111.197 10.7855C111.406 11.3509 111.511 11.8954 111.553 12.4399C111.594 12.9844 111.615 13.4452 111.615 13.8012V21.152H115.592V12.419C115.592 12.1677 115.571 11.7488 115.529 11.1834C115.445 10.6598 115.341 10.0316 115.152 9.34046Z" fill="#08345D"/>
<path d="M133.256 14.5131C133.424 12.6283 133.235 10.9948 132.67 9.59163C132.126 8.20943 131.289 7.12043 130.138 6.34556C128.987 5.57069 127.605 5.19373 125.973 5.19373C124.445 5.19373 123.085 5.54975 121.892 6.24085C120.72 6.93195 119.778 7.91624 119.108 9.17278C118.438 10.4293 118.103 11.9162 118.103 13.6126C118.103 15.1623 118.438 16.5445 119.129 17.7592C119.82 18.9738 120.761 19.9162 121.975 20.6073C123.189 21.2984 124.591 21.6335 126.182 21.6335C127.689 21.6335 129.049 21.2356 130.326 20.4607C131.582 19.6649 132.503 18.5759 133.089 17.1518L129.175 16.0209C128.882 16.6492 128.463 17.1309 127.919 17.466C127.375 17.801 126.705 17.9686 125.952 17.9686C124.738 17.9686 123.817 17.5707 123.189 16.7749C122.729 16.1885 122.436 15.4346 122.31 14.5131H133.256ZM126.161 8.60734C127.312 8.60734 128.128 8.96336 128.631 9.65446C128.966 10.1152 129.175 10.7644 129.3 11.6021H122.457C122.603 10.8901 122.854 10.2827 123.231 9.82199C123.859 9.00524 124.822 8.60734 126.161 8.60734Z" fill="#08345D"/>
<defs>
<linearGradient id="paint0_linear_522_2597" x1="22.1897" y1="19.0833" x2="35.9459" y2="33.5481" gradientUnits="userSpaceOnUse">
<stop stop-color="#F2940C"/>
<stop offset="1" stop-color="#C1292A"/>
</linearGradient>
</defs>
</svg>
